<?xml version="1.0" encoding="UTF-8"?>
<svg width="198px" height="31px" viewBox="0 0 198 31" version="1.1" xmlns="http://www.w3.org/2000/svg" xmlns:xlink="http://www.w3.org/1999/xlink">
    <!-- Generator: Sketch 57.1 (83088) - https://sketch.com -->
    <title>Group 2</title>
    <desc>Created with Sketch.</desc>
    <g id="Shirts" stroke="none" stroke-width="1" fill="none" fill-rule="evenodd">
        <g id="Xcentium-Shirt" transform="translate(-826.000000, -588.000000)">
            <g id="Group-2" transform="translate(826.000000, 587.201117)">
                <g id="XC_Logo_Dark" transform="translate(0.000000, 0.798883)">
                    <path d="M50.8973001,8.65217802 C48.9969149,5.51597597 45.4020078,3.55124596 41.4345861,3.55124596 C34.9477885,3.55124596 30.1555127,8.27538049 30.1555127,15.2121381 C30.1555127,22.1503123 35.0724269,26.8319509 41.4345861,26.8319509 C45.8151351,26.8319509 49.6159055,24.4918399 51.4350657,20.9391774 L55.0299728,21.9420821 C52.5918219,27.125173 47.5096569,30.4271094 41.4345861,30.4271094 C33.1300287,30.4271094 26.4359673,24.031467 26.4359673,15.2121381 C26.4359673,6.39422587 33.1300287,0 41.4345861,0 C47.1371422,0 52.0134438,3.00871417 54.5748326,7.64785677 L50.8973001,8.65217802" id="Fill-1" fill="#FFFFFF"></path>
                    <polyline id="Fill-2" fill="#FFFFFF" points="78.7683924 27.0305295 78.7683924 30.4271094 59.346049 30.4271094 59.346049 1.08668248 78.5236252 1.08668248 78.5236252 4.48184178 62.8958643 4.48184178 62.8958643 13.3248822 75.4633443 13.3248822 75.4633443 16.636228 62.8958643 16.636228 62.8958643 27.0305295 78.7683924 27.0305295"></polyline>
                    <polyline id="Fill-3" fill="#FFFFFF" points="108.980926 1.08668248 108.980926 30.4271094 105.619501 30.4271094 89.3015084 8.37988242 88.7276064 7.45651273 88.8095924 8.67251958 88.8095924 30.4271094 85.2425068 30.4271094 85.2425068 1.08668248 88.5636344 1.08668248 104.923314 23.0074788 105.455529 23.972045 105.373543 22.7560381 105.373543 1.08668248 108.980926 1.08668248"></polyline>
                    <polyline id="Fill-4" fill="#FFFFFF" points="135.956403 1.08668248 135.956403 4.48184178 126.391512 4.48184178 126.391512 30.4271094 122.821547 30.4271094 122.821547 4.48184178 113.297003 4.48184178 113.297003 1.08668248 135.956403 1.08668248"></polyline>
                    <polygon id="Fill-5" fill="#FFFFFF" points="140.811989 1.08668248 144.588556 1.08668248 144.588556 30.4271094 140.811989 30.4271094"></polygon>
                    <path d="M194.625629,1.08668248 L184.958475,17.2609745 L184.587573,18.0967454 L184.176235,17.2609745 L174.549517,1.08668248 L171.13471,1.08668248 L171.13471,18.3474767 C171.13471,24.0321355 168.213509,27.5423733 162.659741,27.5423733 C157.105973,27.5423733 154.14294,24.0321355 154.14294,18.3474767 L154.14294,1.08668248 L150.523161,1.08668248 L150.523161,18.1803225 C150.523161,26.2051398 155.007449,30.9704506 162.659741,30.9704506 C170.270202,30.9704506 174.75449,26.2051398 174.75449,18.1803225 L174.75449,8.77719144 L174.673616,7.56461534 L175.24949,8.77719144 L183.805333,23.1538677 L185.369814,23.1538677 L193.927051,8.77719144 L194.502925,7.52211851 L194.420657,8.77719144 L194.420657,30.3443307 L198,30.3443307 L198,1.08668248 L194.625629,1.08668248" id="Fill-6" fill="#FFFFFF"></path>
                    <polyline id="Fill-7" fill="#FFFFFF" points="11.8692098 10.0528584 5.39288878 1.08668248 1.07901907 1.08668248 9.71227495 13.0401897 11.8692098 10.0528584"></polyline>
                    <polyline id="Fill-8" fill="#FFFFFF" points="14.5667575 19.9456145 22.0243402 30.4271094 26.4359673 30.4271094 16.7732765 16.8435784 14.5667575 19.9456145"></polyline>
                    <polyline id="Fill-9" fill="#379FB1" points="0 30.4271094 4.35685438 30.4271094 25.3569482 1.08668248 21.0014867 1.08668248 0 30.4271094"></polyline>
                </g>
            </g>
        </g>
    </g>
</svg>